<?xml version="1.0" encoding="UTF-8"?>
<svg xmlns="http://www.w3.org/2000/svg" version="1.1" viewBox="0 0 493.23 829.7">
  <defs>
    <style>
      .cls-1 {
        fill: none;
        stroke: #000;
        stroke-linecap: round;
        stroke-linejoin: round;
        stroke-width: 2px;
      }
    </style>
  </defs>
  <!-- Generator: Adobe Illustrator 28.7.3, SVG Export Plug-In . SVG Version: 1.2.0 Build 164)  -->
  <g>
    <g id="Layer_1">
      <g id="r5yfbn.tif">
        <path class="cls-1" d="M305.65,229.82c-4.36,1.84-9.55-1.47-12.86-4.74-22.84-21.82,15.73-55.56,18.27-84.68-1.71-33.4-47.08-25.64-67.85-7.68-32.21,23.96-5.26,74.84-34.33,94.98-6.54,4.7-15.11,5.49-20.24-1.88-28.86-73.09-137.19-6.2-157.52,57.5-2.73,8.89-4.14,18.15-4.92,27.47-.44,5.9-.44,12.39,1.17,17,3.64,10.62,13.9,6.02,19.87.02,25.03-24.99,54.71-71.37,88.86-64.3,2.52.77,4.32,2.15,4.98,4.12,1.78,4.27-3.74,12.13-6.99,16.65-56.55,79.04-13.63,150.96,36.43,218.76,3.69,5.85,5.11,11.72,2.45,17.89-9.61,18.92-32.42,31.1-36.13,51.97-1.78,9.88,4.2,19.36,14.07,20.9,6.54,1.23,13.48.01,19.99-1.31,12.51-2.58,24.49-4.61,28.81-17.42,2.81-7.14,4.33-15.86,7.95-22.51,8.8-15.99,20.13,3.59,28.97,9.22,14.37,11.07,20.9,3.73,35.61-8.5,7.54-6.13,16.53-8.12,21.25,2.41,4.85,9.8,4.96,23.11,14.35,30.09,6.06,4.48,16.96,5.89,25.6,7.37,10.04,1.48,24.44,2.48,28.72-8.85,2.59-6.5.56-15.68-3.13-22.21-8.43-15.69-24.69-26.45-32.57-42.55-2.46-6.12-.88-11.81,2.93-17.41,53.37-65.96,91.8-146.99,33.46-222.67-5.35-7.75-6.31-15.39,3.23-16.96,9.71-1.74,21,2.92,32.2,10.63,20.69,14.07,36.43,34.68,51.71,51.75,5.19,4.83,14.59,12.57,20.92,7.04,10.32-13.8-5.32-55.92-13.6-71.89-4.81-9.25-9.84-15.26-16.48-22.48-32.03-37.17-110.02-67.73-129.12-14.36-1.62,3.12-3.55,5.55-5.96,6.55l-.13.05Z"/>
      </g>
    </g>
  </g>
</svg>